<?xml version="1.0" standalone="no"?>
<!DOCTYPE svg PUBLIC "-//W3C//DTD SVG 20010904//EN"
 "http://www.w3.org/TR/2001/REC-SVG-20010904/DTD/svg10.dtd">
<svg version="1.0" xmlns="http://www.w3.org/2000/svg"
 width="185.000000pt" height="300.000000pt" viewBox="0 0 185.000000 300.000000"
 preserveAspectRatio="xMidYMid meet">
<metadata>
Created by potrace 1.10, written by Peter Selinger 2001-2011
</metadata>
<g transform="translate(0.000000,300.000000) scale(0.050000,-0.050000)"
fill="#4dff00" stroke="none">
<path d="M1783 5495 c-3 -38 -33 -47 -53 -15 -27 44 -55 18 -43 -40 13 -65 12
-66 -34 -48 -18 6 -26 26 -20 45 6 19 -6 13 -31 -17 l-42 -50 -12 45 c-15 54
-40 58 -53 9 -5 -19 -30 -37 -55 -39 -62 -4 -79 -37 -80 -148 0 -52 -10 -97
-23 -101 -12 -4 -38 -57 -58 -117 -33 -102 -35 -104 -37 -41 -1 37 17 121 41
186 32 88 37 124 20 141 -17 17 -28 6 -46 -44 -21 -61 -25 -64 -49 -32 -32 44
-76 -96 -64 -203 5 -45 0 -66 -18 -66 -14 0 -26 -9 -26 -19 0 -11 12 -15 26
-10 52 20 104 -64 65 -103 -25 -25 -28 -38 -10 -48 22 -14 14 -165 -13 -264
-30 -105 -68 -4 -68 181 -1 132 -7 184 -20 163 -11 -16 -20 -48 -20 -70 -1
-45 -33 -104 -48 -88 -6 5 0 72 12 147 16 95 27 126 37 99 11 -30 17 -22 29
38 11 55 7 85 -15 110 -16 19 -35 51 -42 72 -23 63 -31 27 -14 -62 8 -47 11
-90 5 -95 -21 -21 -71 -10 -107 22 -35 32 -37 28 -35 -85 0 -65 6 -107 11 -93
21 52 47 22 47 -55 0 -44 -7 -80 -16 -80 -26 0 -2 -157 28 -182 32 -26 39
-127 8 -108 -34 21 -22 -66 20 -145 69 -129 38 -209 -48 -122 -51 51 -109 405
-83 500 11 38 9 41 -9 17 -23 -30 -18 24 12 124 7 23 -9 44 -49 65 -33 16 -64
42 -70 56 -5 14 -11 2 -11 -26 -1 -28 8 -61 20 -73 29 -29 2 -206 -32 -206
-14 0 -36 14 -50 30 -35 42 -86 0 -68 -57 19 -60 25 -253 8 -253 -8 0 -26 14
-40 30 -14 17 -37 30 -51 30 -14 0 -46 28 -70 61 -62 87 -75 55 -15 -36 60
-92 96 -351 45 -332 -16 6 -29 24 -29 39 0 15 -9 28 -20 28 -11 0 -20 -31 -20
-70 0 -38 8 -70 18 -70 24 0 60 -92 81 -210 10 -55 24 -122 31 -150 12 -48 12
-49 -19 -11 -41 51 -40 7 2 -82 30 -63 30 -71 -1 -105 -31 -34 -29 -39 36 -89
70 -54 148 -163 162 -227 4 -20 26 -90 49 -156 23 -66 46 -137 51 -158 10 -41
39 -80 158 -207 71 -75 80 -97 84 -193 9 -242 39 -355 78 -292 29 46 45 15 27
-52 -18 -66 -15 -76 42 -127 33 -30 61 -70 61 -88 0 -18 8 -33 18 -33 10 0 23
-23 30 -51 7 -28 22 -45 32 -39 11 7 14 -2 8 -19 -7 -17 -2 -31 11 -31 13 0
18 -8 12 -18 -6 -11 0 -31 14 -45 45 -48 81 -165 86 -280 4 -74 23 -150 56
-215 90 -179 -126 -52 -268 157 -41 61 -89 107 -119 115 -49 13 -244 155 -256
186 -3 9 13 23 36 30 47 15 180 -73 180 -119 0 -47 64 -54 109 -12 49 46 111
3 111 -77 0 -45 61 -74 82 -38 17 27 16 29 -147 221 -63 75 -143 191 -176 258
-34 67 -84 144 -111 170 -55 56 -62 87 -17 87 31 0 -56 180 -95 197 -9 3 -16
17 -16 30 0 13 -42 64 -92 113 -105 103 -148 175 -148 250 0 28 -13 82 -29
121 -35 83 -7 93 76 28 57 -45 67 -95 28 -138 -20 -22 -20 -24 1 -12 15 8 48
-11 85 -50 41 -44 59 -54 59 -31 0 18 9 32 20 32 11 0 20 -13 20 -28 0 -15 13
-33 30 -39 16 -7 30 -3 30 8 0 10 -11 19 -23 19 -13 0 -18 5 -12 12 7 7 -28
62 -78 122 -49 61 -85 115 -79 121 18 18 -48 69 -76 58 -37 -14 -76 74 -142
314 -29 108 -80 239 -113 290 -32 51 -55 109 -49 130 15 58 -7 92 -87 132 -40
21 -85 52 -100 70 -64 77 -76 25 -12 -59 37 -49 73 -105 78 -125 6 -19 30
-101 53 -181 50 -172 47 -193 -20 -154 -27 15 -72 38 -100 50 -27 13 -70 42
-95 65 -76 71 -69 27 15 -90 44 -62 80 -120 80 -130 0 -9 23 -48 50 -85 79
-107 38 -161 -62 -82 -83 65 -87 28 -5 -44 39 -35 86 -89 104 -119 22 -36 48
-53 76 -50 54 6 205 -200 185 -252 -18 -49 -53 -40 -97 26 -22 32 -42 56 -46
53 -15 -16 65 -167 107 -202 35 -29 44 -52 36 -85 -18 -63 -45 -56 -77 20 -15
36 -59 117 -98 181 -38 64 -81 161 -95 215 -23 89 -31 99 -81 99 -30 0 -60 8
-66 18 -5 9 -30 22 -54 29 -34 9 -27 -6 37 -73 45 -46 105 -137 134 -203 62
-138 50 -158 -85 -144 -47 5 -79 2 -70 -5 9 -8 51 -39 92 -69 41 -30 105 -103
143 -160 37 -58 96 -139 131 -179 70 -80 48 -161 -49 -179 -31 -6 -19 -17 50
-49 104 -48 255 -194 222 -215 -35 -21 -26 -51 16 -51 21 0 43 14 49 30 14 35
64 40 84 9 7 -12 -5 -26 -26 -32 -35 -9 -27 -22 59 -103 79 -73 96 -101 87
-138 -9 -36 -3 -46 27 -46 23 0 90 -58 164 -141 69 -77 148 -151 176 -165 29
-13 55 -42 59 -64 5 -27 59 -66 168 -120 117 -58 173 -98 201 -147 36 -60 48
-66 107 -56 36 6 71 2 77 -7 14 -23 253 -21 282 2 11 9 56 24 100 33 62 13 86
32 118 90 21 40 55 77 75 82 19 5 35 24 35 43 0 18 44 83 98 144 54 61 127
163 161 227 34 64 70 119 80 122 10 4 68 88 127 187 60 99 128 190 153 203 27
14 36 28 23 36 -12 7 -30 8 -40 2 -29 -18 -13 43 21 83 17 20 78 130 135 246
60 120 132 233 168 264 l64 55 -56 51 c-48 42 -52 56 -33 92 38 71 95 299 85
339 -6 21 9 61 32 91 53 67 54 108 3 108 -30 0 -47 -26 -73 -109 -19 -60 -42
-105 -50 -99 -9 5 -11 22 -5 39 24 62 -14 25 -42 -41 -35 -84 -71 -92 -70 -15
1 80 38 151 134 259 195 220 293 396 142 255 -41 -39 -65 -51 -71 -34 -13 34
-46 32 -46 -3 0 -15 -14 -33 -30 -39 -24 -10 -27 -4 -12 23 11 22 11 68 -2
124 -11 50 -19 129 -18 176 5 160 -94 7 -136 -211 -31 -160 -96 -307 -142
-319 -26 -7 -47 -55 -78 -177 -23 -92 -60 -197 -81 -233 -86 -143 -103 -180
-94 -202 5 -13 20 6 33 42 14 36 29 61 35 56 23 -23 -88 -280 -149 -345 -36
-39 -66 -78 -66 -88 0 -11 -14 -19 -31 -19 -17 0 -26 -9 -19 -20 7 -11 2 -20
-11 -20 -24 0 -13 144 23 285 18 67 26 75 84 75 64 1 64 1 16 25 -73 37 -72
69 1 114 60 37 66 49 69 146 6 177 71 343 140 356 46 8 51 13 23 24 -53 21
-42 70 35 161 46 53 66 94 59 118 -18 55 9 116 51 116 58 0 100 22 100 53 0
20 -14 24 -52 15 -46 -12 -51 -8 -45 34 5 35 23 51 67 58 58 11 60 14 53 110
-8 119 -43 172 -43 66 0 -83 -16 -136 -42 -136 -10 0 -18 14 -18 30 0 17 -9
30 -20 30 -11 0 -20 -8 -20 -18 0 -10 -13 -23 -30 -29 -41 -16 -41 85 0 138
24 32 32 34 48 11 17 -27 62 82 62 153 0 14 14 25 30 25 17 0 39 22 50 50 10
27 37 87 59 133 52 106 38 123 -23 29 -52 -81 -75 -89 -90 -32 -16 61 -46 48
-35 -15 10 -54 -18 -125 -41 -102 -27 28 -34 227 -10 325 29 121 17 194 -17
108 -76 -192 -157 -91 -149 189 l2 75 -82 -70 c-44 -39 -88 -70 -95 -70 -20 0
-38 108 -20 120 8 5 20 42 26 80 6 39 18 88 27 110 11 31 3 28 -38 -15 -29
-30 -66 -55 -83 -55 -19 0 -31 -18 -31 -44 0 -62 -32 -21 -47 60 -8 41 -5 61
7 54 23 -14 27 88 6 143 -13 33 -15 31 -26 -11 -28 -120 -126 -92 -154 43 -6
30 -18 50 -27 44 -9 -5 -49 23 -89 63 l-73 72 -46 -43 -47 -44 -23 71 c-27 82
-34 85 -96 33 -49 -40 -56 -81 -26 -136 37 -66 78 -240 60 -258 -10 -10 -5
-52 11 -97 32 -90 39 -190 13 -190 -9 0 6 -74 34 -165 42 -140 51 -209 54
-455 3 -159 7 -366 9 -460 6 -213 -16 -392 -52 -422 -17 -14 -23 -41 -16 -70
7 -28 0 -67 -18 -94 -25 -39 -26 -51 -2 -84 16 -21 28 -62 28 -91 0 -29 23
-97 52 -150 78 -147 83 -246 18 -365 -29 -54 -51 -111 -47 -126 3 -15 -15 -87
-40 -160 -83 -246 -49 -572 56 -544 95 25 30 -325 -81 -436 -122 -122 -239
246 -140 441 31 60 41 188 18 216 -18 21 -15 82 10 251 65 426 80 1208 26
1316 -42 84 -41 95 17 204 74 139 100 310 56 359 -34 38 -47 289 -27 545 3 44
-9 121 -28 170 -19 50 -39 126 -45 170 -5 44 -18 91 -29 104 -10 13 -14 67 -8
120 6 53 1 131 -10 173 -14 53 -14 107 1 177 16 75 16 108 -1 129 -32 38 -56
34 -45 -9 5 -20 -4 -49 -22 -63 -38 -32 -84 -1 -97 65 -6 31 -9 33 -11 9z
m-127 -200 c21 -79 9 -135 -29 -135 -21 0 -27 -27 -25 -105 1 -58 -7 -130 -19
-160 -16 -39 -16 -71 -1 -110 41 -108 33 -368 -15 -442 l-42 -68 -25 172 c-15
107 -18 211 -8 277 24 152 23 163 -6 198 -40 48 -7 250 40 242 24 -4 34 8 34
44 0 134 67 195 96 87z m207 -155 c18 -54 -5 -170 -34 -170 -55 0 -120 292
-76 337 15 14 83 -89 110 -167z m466 -4 c18 -62 36 -169 41 -239 5 -70 14
-201 21 -292 7 -91 6 -165 -4 -165 -9 0 -14 -50 -10 -111 6 -106 -16 -169 -61
-169 -10 0 -16 64 -14 142 3 115 -2 147 -29 161 -38 22 -45 173 -14 307 14 59
12 83 -7 94 -81 46 -87 274 -7 278 34 2 37 5 10 12 -39 10 -40 15 -22 104 16
82 49 41 96 -122z m105 -74 c8 -54 4 -82 -11 -82 -13 0 -23 17 -23 38 0 20 -6
67 -13 105 -9 52 -7 62 12 44 13 -12 29 -59 35 -105z m-1044 -3 c-8 -23 -1
-60 15 -85 64 -101 20 -364 -46 -274 -17 23 -19 16 -9 -30 7 -33 14 -78 16
-100 3 -22 11 -51 20 -65 9 -13 19 -54 22 -90 4 -36 16 -87 27 -115 109 -264
139 -480 82 -593 -16 -32 -13 -74 12 -170 19 -70 37 -145 41 -167 3 -22 13
-57 22 -78 10 -27 8 -34 -8 -24 -13 7 -40 5 -62 -7 -29 -16 -41 -13 -50 11
-17 45 -15 72 5 60 22 -14 17 35 -15 147 -14 48 -22 113 -17 144 4 30 1 51 -8
45 -8 -5 -25 26 -36 68 -55 203 -50 379 10 356 40 -15 36 1 -10 47 -38 38 -39
38 -46 -15 l-7 -54 -27 60 c-51 117 -71 242 -59 370 3 39 0 104 -9 145 -11 58
-9 75 13 75 21 0 31 43 41 165 9 122 21 172 47 190 46 34 51 32 36 -16z m381
-90 c25 -66 41 -126 36 -134 -6 -9 -12 -64 -14 -124 -5 -147 -93 -171 -93 -26
0 21 -14 51 -30 68 -17 17 -25 48 -19 73 14 58 26 151 28 221 2 88 43 54 92
-78z m777 56 c5 -19 16 -71 23 -115 19 -123 30 -150 56 -150 62 0 103 -809 45
-885 -64 -84 -82 -43 -88 199 -12 444 -94 324 -94 -137 0 -231 -5 -278 -35
-311 -19 -22 -35 -61 -35 -88 0 -57 -70 -178 -102 -178 -26 0 -7 206 24 264
11 20 10 54 -2 86 -40 104 -7 390 45 390 10 0 12 19 5 41 -9 27 -1 56 23 82
20 22 51 83 67 134 23 69 40 91 65 87 21 -3 35 7 35 25 0 17 -9 31 -19 31 -12
0 -15 50 -8 125 11 120 10 127 -41 154 -59 31 -66 64 -22 101 35 29 39 74 7
84 -13 5 -17 25 -8 52 17 53 44 57 59 9z m-597 -280 c-6 -16 -2 -64 10 -107
29 -109 29 -247 -1 -318 -21 -51 -20 -90 8 -227 55 -276 37 -494 -39 -466 -42
17 -48 -92 -15 -269 36 -189 45 -378 23 -468 -9 -33 -20 -85 -27 -116 -15 -75
-39 -55 -71 60 -15 53 -44 125 -65 161 -23 39 -29 65 -15 65 16 0 17 11 1 41
-17 31 -14 68 11 155 36 123 42 177 58 521 6 125 16 234 21 243 28 45 29 270
1 362 -16 55 -25 129 -19 164 57 358 65 382 102 296 15 -37 23 -81 17 -97z
m758 91 c34 -49 43 -216 11 -216 -11 0 -18 7 -16 15 7 30 -29 196 -49 220 -13
17 -13 25 1 25 12 0 36 -20 53 -44z m204 -237 c14 -60 26 -134 26 -165 1 -30
12 -60 26 -65 33 -13 30 -559 -4 -769 -33 -201 -108 -383 -181 -437 -40 -29
-62 -67 -70 -118 -19 -121 -78 -289 -105 -300 -14 -5 -20 -17 -14 -27 6 -9 -3
-43 -20 -76 -41 -79 -65 -282 -33 -282 36 0 11 -114 -103 -450 -104 -310 -145
-388 -184 -349 -27 27 -28 415 -1 435 35 25 75 119 61 143 -19 30 25 81 69 81
20 0 50 23 68 50 28 43 29 50 3 50 -80 0 -77 310 4 483 41 87 72 172 74 204 1
9 17 28 36 42 19 14 35 33 35 43 0 10 40 45 88 78 90 61 138 162 161 340 5 33
17 109 27 169 18 101 16 115 -31 175 -40 53 -47 79 -36 136 7 38 10 73 7 77
-3 4 7 22 22 41 22 27 32 28 44 8 13 -20 23 -16 46 14 27 37 24 42 -34 73 -40
21 -69 26 -76 13 -17 -27 -38 34 -38 109 0 60 1 61 31 24 30 -37 30 -37 9 7
-36 74 -38 267 -4 320 43 66 68 46 97 -77z m-1204 -74 c6 -30 17 -77 23 -105
53 -225 51 -456 -4 -502 -20 -16 -22 -32 -7 -60 12 -22 13 -38 2 -38 -32 0
-39 -72 -11 -122 34 -61 37 -321 4 -354 -29 -29 -76 68 -76 157 0 31 -9 62
-20 69 -30 18 -25 170 5 170 17 1 15 7 -5 20 -27 16 -26 29 3 111 26 71 29
107 13 152 -11 33 -15 122 -9 203 7 79 13 158 14 174 7 179 42 243 68 125z
m-559 -151 c8 -35 19 -77 24 -94 5 -16 12 -101 17 -187 4 -91 19 -172 34 -190
15 -18 29 -60 32 -93 4 -33 19 -79 34 -103 15 -23 24 -67 21 -98 -3 -31 5 -79
20 -107 79 -158 95 -219 95 -347 -1 -101 6 -135 26 -135 19 0 27 28 27 90 0
50 9 90 20 90 25 0 105 -156 91 -179 -6 -10 -1 -21 12 -25 39 -13 48 -516 10
-566 -28 -38 -31 -35 -54 55 -13 53 -32 101 -42 107 -9 6 -12 30 -7 54 7 26
-6 69 -29 104 -67 100 -73 112 -160 337 -59 150 -82 236 -76 280 11 68 -15
161 -40 146 -44 -27 -154 341 -125 418 17 43 14 74 -9 133 -20 51 -31 143 -31
270 l0 193 48 -45 c26 -25 54 -73 62 -108z m-405 20 c86 -119 96 -163 32 -143
-45 14 -40 -92 5 -108 69 -25 124 -198 80 -251 -17 -20 -15 -33 8 -52 16 -14
30 -37 30 -52 0 -15 27 -65 60 -112 37 -53 68 -132 81 -206 12 -66 30 -136 40
-155 46 -85 11 -72 -89 32 -114 119 -158 206 -182 353 -7 50 -30 119 -50 154
-45 77 -136 648 -103 645 7 -1 47 -48 88 -105z m-115 -642 c25 -56 51 -165 59
-242 l14 -140 -46 45 c-44 43 -145 413 -123 450 17 29 51 -10 96 -113z m2160
53 c-8 -19 -17 -93 -20 -165 -11 -239 -117 -500 -178 -440 -36 36 -12 443 27
456 11 4 21 28 21 53 0 45 44 96 100 117 53 19 65 15 50 -21z m-1997 -219 c15
-36 27 -87 27 -113 0 -33 11 -48 33 -46 18 2 49 -24 69 -57 20 -33 46 -75 57
-94 16 -25 12 -42 -14 -68 -32 -33 -33 -35 -1 -23 32 12 116 -72 116 -117 0
-24 64 -88 88 -88 16 1 16 5 1 15 -27 19 -8 235 21 235 31 0 46 -255 17 -285
-28 -29 33 -204 96 -276 21 -23 37 -52 37 -64 0 -12 17 -28 38 -34 40 -13 74
-71 42 -71 -11 0 -9 -21 4 -50 12 -27 30 -50 39 -50 9 0 17 -16 17 -35 0 -19
21 -94 47 -165 35 -99 42 -145 29 -194 -35 -134 -92 -104 -147 79 -21 69 -50
137 -64 152 -15 16 -54 83 -88 150 l-60 123 11 -137 c7 -85 26 -164 51 -206
38 -65 39 -67 2 -48 -42 23 -90 152 -119 321 -32 190 -105 406 -175 520 -24
39 -63 149 -87 247 -24 97 -65 208 -92 247 -26 40 -48 86 -48 104 0 18 -13 52
-29 75 -16 23 -24 47 -17 54 20 20 70 -31 99 -101z m2558 -141 c-25 -25 -33
15 -17 88 l16 77 6 -77 c4 -42 2 -82 -5 -88z m-2919 -88 c51 -102 61 -157 27
-157 -22 0 -139 232 -139 277 0 48 58 -15 112 -120z m2066 48 c-12 -30 -22
-85 -22 -121 0 -36 -23 -126 -51 -200 -28 -74 -64 -188 -80 -254 -45 -187 -45
-186 -68 -144 -40 72 -46 401 -8 459 19 29 33 60 32 69 -1 9 20 19 48 22 42 6
46 12 27 43 -18 29 -12 49 33 108 69 90 121 100 89 18z m704 -348 c-46 -173
-181 -475 -229 -514 -55 -46 -42 59 27 210 33 73 60 143 60 155 0 36 120 280
146 296 38 23 37 8 -4 -147z m-2313 -42 c118 -276 144 -378 75 -304 -19 22
-47 71 -62 109 -15 39 -44 108 -64 155 -46 102 -46 105 -8 105 17 0 43 -29 59
-65z m-444 -44 c19 -27 27 -54 16 -60 -10 -6 -32 8 -50 33 -58 83 -26 109 34
27z m1366 -166 c20 -46 29 -108 23 -159 -5 -46 -2 -91 7 -100 8 -9 18 -77 23
-152 5 -84 18 -143 35 -153 18 -12 22 -37 12 -84 -20 -100 -31 -196 -34 -303
-2 -58 -12 -93 -25 -89 -38 11 -131 217 -144 318 -7 53 -21 97 -31 97 -44 0
-10 227 43 280 28 28 31 133 9 305 -18 141 30 164 82 40z m1541 -140 c-29 -74
-41 -129 -29 -137 24 -15 -18 -68 -54 -68 -15 0 -39 -18 -55 -40 -29 -42 -83
-38 -100 7 -20 53 135 322 206 358 88 44 91 32 32 -120z m-92 -298 c0 -7 -21
-41 -46 -75 -93 -125 -134 -215 -134 -294 0 -69 -5 -79 -36 -69 -25 8 -50 -7
-81 -49 -88 -119 -113 -7 -50 227 18 68 32 139 31 158 -1 19 9 40 22 48 13 7
17 6 9 -3 -19 -21 21 -70 58 -70 22 0 24 9 7 40 -23 43 56 94 113 72 14 -6 31
-2 38 9 13 21 69 26 69 6z m-2820 -34 c85 -20 111 -35 116 -67 10 -69 101 -96
116 -35 7 27 24 49 38 49 39 0 76 -56 62 -93 -8 -19 -2 -41 12 -50 18 -11 19
-16 3 -17 -15 0 -5 -37 25 -95 26 -52 48 -107 48 -121 0 -14 13 -30 30 -37 16
-6 25 -19 19 -29 -6 -10 1 -13 15 -8 15 6 42 -17 62 -53 41 -72 34 -94 -14
-46 -41 41 -94 50 -129 22 -34 -27 -62 5 -249 285 -90 134 -163 220 -215 253
-120 76 -111 82 61 42z m2349 -220 c-16 -122 -52 -199 -113 -242 -25 -17 -38
-31 -29 -31 24 0 -51 -117 -83 -129 -109 -42 -65 105 114 382 105 162 131 167
111 20z m-1119 -225 c48 -52 55 -66 78 -173 7 -30 24 -53 37 -50 15 3 23 -12
19 -35 -3 -22 -5 -102 -4 -178 1 -76 -8 -144 -19 -151 -20 -13 66 -199 103
-223 11 -7 16 -38 13 -70 -9 -79 -99 -92 -172 -25 -138 127 -229 324 -116 249
68 -44 71 -42 70 43 -2 125 -43 216 -95 210 -41 -4 -43 1 -32 73 14 87 -18
166 -61 150 -20 -8 -25 0 -17 31 6 22 2 52 -10 66 -14 17 -12 33 7 50 17 15
31 17 39 5 20 -33 50 -23 50 17 0 78 44 82 110 11z m1124 -52 c150 -65 208
-136 110 -136 -72 0 -180 -111 -255 -260 -123 -247 -195 -320 -228 -232 -10
26 -28 54 -40 61 -37 23 -23 81 38 162 33 44 60 88 60 99 0 11 -7 8 -17 -7
-12 -19 -21 -21 -31 -5 -13 21 -5 24 79 30 63 3 127 78 102 118 -15 23 -15 39
0 54 27 27 88 5 88 -33 0 -23 9 -22 50 5 60 39 63 70 10 103 -77 48 -52 78 34
41z m-385 -675 c80 -89 -99 -379 -215 -350 -60 15 -76 68 -57 179 14 79 15 80
98 76 l84 -4 -31 48 c-57 87 49 131 121 51z m-351 -306 c1 -19 -7 -35 -18 -35
-34 0 -60 95 -46 165 l14 65 24 -80 c14 -44 26 -96 26 -115z m-90 14 c25 -67
-12 -113 -80 -100 -56 11 -65 7 -55 -18 8 -23 3 -28 -21 -19 -21 8 -32 37 -32
85 0 73 0 73 89 75 54 1 93 -8 99 -23z"/>
<path d="M2872 4490 c6 -88 21 -169 32 -180 26 -25 5 227 -25 295 -14 32 -16
-2 -7 -115z"/>
<path d="M240 4174 c0 -4 18 -44 40 -89 22 -46 40 -114 40 -153 0 -38 9 -75
20 -82 11 -7 20 8 20 34 0 25 6 80 13 121 9 58 6 75 -17 75 -16 0 -41 23 -56
50 -22 41 -60 69 -60 44z"/>
<path d="M3294 4152 c-8 -19 -13 -77 -12 -129 l3 -93 18 109 c19 114 14 174
-9 113z"/>
<path d="M3473 4031 c-18 -27 -64 -64 -103 -82 -70 -33 -86 -73 -51 -128 16
-25 22 -25 53 0 19 16 38 25 43 19 6 -5 27 35 49 90 21 55 49 111 60 125 14
16 14 25 1 25 -11 0 -35 -22 -52 -49z"/>
<path d="M377 3815 c-6 -152 4 -194 48 -195 18 0 20 250 2 315 -24 90 -44 42
-50 -120z"/>
<path d="M3484 3754 c-64 -66 -75 -110 -45 -184 13 -33 19 -27 31 40 8 44 37
109 63 145 63 84 33 84 -49 -1z"/>
</g>
</svg>
